<svg version="1.1" width="724.000000" height="561.000000" viewBox="0.000000 0.000000 724.000000 561.000000" xmlns="http://www.w3.org/2000/svg" xmlns:xlink="http://www.w3.org/1999/xlink" overflow="hidden"><defs><linearGradient x1="0.000000" y1="0.000000" x2="1.000000" y2="1.000000" gradientUnits="objectBoundingBox" spreadMethod="pad" id="gradientFill-1"><stop offset="0.000000" stop-color="#CBCED0" stop-opacity="1.000000"/><stop offset="1.000000" stop-color="#84838B" stop-opacity="1.000000"/></linearGradient><linearGradient x1="0.000000" y1="0.000000" x2="1.000000" y2="1.000000" gradientUnits="objectBoundingBox" spreadMethod="pad" id="gradientFill-2"><stop offset="0.000000" stop-color="#276DC3" stop-opacity="1.000000"/><stop offset="1.000000" stop-color="#165CAA" stop-opacity="1.000000"/></linearGradient></defs><path d=" M 361.453003 485.937012 C 162.328995 485.937012 0.906000 377.828003 0.906000 244.468994 C 0.906000 111.109001 162.328995 3.000000 361.453003 3.000000 C 560.578003 3.000000 722.000000 111.109001 722.000000 244.468994 C 722.000000 377.828003 560.578003 485.937012 361.453003 485.937012 Z M 416.640991 97.405998 C 265.289001 97.405998 142.593994 171.313995 142.593994 262.484009 C 142.593994 353.653992 265.289001 427.562012 416.640991 427.562012 C 567.992004 427.562012 679.687012 377.032990 679.687012 262.484009 C 679.687012 147.970993 567.992004 97.405998 416.640991 97.405998 Z" fill="url(#gradientFill-1)" fill-rule="evenodd"/><path d=" M 550.000000 377.000000 C 550.000000 377.000000 571.822021 383.584991 584.500000 390.000000 C 588.898987 392.226013 596.510010 396.667999 602.000000 402.500000 C 607.377991 408.212006 610.000000 414.000000 610.000000 414.000000 L 696.000000 559.000000 L 557.000000 559.062012 L 492.000000 437.000000 C 492.000000 437.000000 478.690002 414.131012 470.500000 407.500000 C 463.667999 401.968994 460.755005 400.000000 454.000000 400.000000 C 449.298004 400.000000 420.973999 400.000000 420.973999 400.000000 L 421.000000 558.973999 L 298.000000 559.026001 L 298.000000 152.938004 L 545.000000 152.938004 C 545.000000 152.938004 657.500000 154.966995 657.500000 262.000000 C 657.500000 369.032990 550.000000 377.000000 550.000000 377.000000 Z M 496.500000 241.024002 L 422.036987 240.975998 L 422.000000 310.026001 L 496.500000 310.002014 C 496.500000 310.002014 531.000000 309.894989 531.000000 274.877014 C 531.000000 239.154999 496.500000 241.024002 496.500000 241.024002 Z" fill="url(#gradientFill-2)" fill-rule="evenodd"/></svg>